<mxfile host="65bd71144e">
    <diagram id="Dp09zciwQ04VZwHExYm0" name="Page-1">
        <mxGraphModel dx="1459" dy="467" grid="1" gridSize="10" guides="1" tooltips="1" connect="1" arrows="1" fold="1" page="1" pageScale="1" pageWidth="850" pageHeight="1100" math="0" shadow="0">
            <root>
                <mxCell id="0"/>
                <mxCell id="1" parent="0"/>
                <mxCell id="64" value="" style="group" parent="1" vertex="1" connectable="0">
                    <mxGeometry x="370" y="354" width="319.99999999999994" height="123" as="geometry"/>
                </mxCell>
                <mxCell id="54" value="" style="rounded=1;whiteSpace=wrap;html=1;" parent="64" vertex="1">
                    <mxGeometry width="320" height="123" as="geometry"/>
                </mxCell>
                <mxCell id="55" value="" style="sketch=0;html=1;dashed=0;whitespace=wrap;fillColor=#2875E2;strokeColor=#ffffff;points=[[0.005,0.63,0],[0.1,0.2,0],[0.9,0.2,0],[0.5,0,0],[0.995,0.63,0],[0.72,0.99,0],[0.5,1,0],[0.28,0.99,0]];verticalLabelPosition=bottom;align=center;verticalAlign=top;shape=mxgraph.kubernetes.icon;prIcon=pod" parent="64" vertex="1">
                    <mxGeometry x="19.42999999999995" y="10" width="30" height="28" as="geometry"/>
                </mxCell>
                <mxCell id="56" value="user-management-ui-service" style="aspect=fixed;html=1;points=[];align=center;image;fontSize=12;image=img/lib/azure2/compute/Image_Definitions.svg;fillColor=#CCCCCC;" parent="64" vertex="1">
                    <mxGeometry x="124.57" y="38" width="49.43" height="47.93" as="geometry"/>
                </mxCell>
                <mxCell id="43" value="" style="sketch=0;aspect=fixed;html=1;points=[];align=center;image;fontSize=12;image=img/lib/mscae/Docker.svg;fillColor=#CCCCCC;movable=1;resizable=1;rotatable=1;deletable=1;editable=1;connectable=1;" parent="64" vertex="1">
                    <mxGeometry x="259.42999999999995" y="10" width="50" height="41" as="geometry"/>
                </mxCell>
                <mxCell id="47" value="" style="rounded=1;whiteSpace=wrap;html=1;" parent="1" vertex="1">
                    <mxGeometry x="370" y="484" width="320" height="123" as="geometry"/>
                </mxCell>
                <mxCell id="23" style="edgeStyle=none;html=1;" parent="1" source="17" target="21" edge="1">
                    <mxGeometry relative="1" as="geometry"/>
                </mxCell>
                <mxCell id="25" style="edgeStyle=none;html=1;" parent="1" source="8" target="21" edge="1">
                    <mxGeometry relative="1" as="geometry"/>
                </mxCell>
                <mxCell id="30" style="edgeStyle=none;html=1;" parent="1" source="8" target="29" edge="1">
                    <mxGeometry relative="1" as="geometry"/>
                </mxCell>
                <mxCell id="73" style="edgeStyle=none;html=1;" parent="1" source="21" target="56" edge="1">
                    <mxGeometry relative="1" as="geometry"/>
                </mxCell>
                <mxCell id="77" style="edgeStyle=none;html=1;fontColor=#FFFFFF;dashed=1;" parent="1" source="21" target="76" edge="1">
                    <mxGeometry relative="1" as="geometry"/>
                </mxCell>
                <mxCell id="21" value="Usuarios" style="aspect=fixed;html=1;points=[];align=center;image;fontSize=12;image=img/lib/azure2/identity/Users.svg;" parent="1" vertex="1">
                    <mxGeometry x="120.00000000000006" y="474" width="36.57" height="40" as="geometry"/>
                </mxCell>
                <mxCell id="31" style="edgeStyle=none;html=1;" parent="1" source="29" target="21" edge="1">
                    <mxGeometry relative="1" as="geometry"/>
                </mxCell>
                <mxCell id="29" value="AD Tecsidel" style="aspect=fixed;html=1;points=[];align=center;image;fontSize=12;image=img/lib/azure2/identity/Azure_Active_Directory.svg;" parent="1" vertex="1">
                    <mxGeometry x="-9.999999999999972" y="510" width="40" height="36.57" as="geometry"/>
                </mxCell>
                <mxCell id="33" value="ENTORNO PREPRODUCCIÃ“N" style="text;html=1;strokeColor=none;fillColor=none;align=center;verticalAlign=middle;whiteSpace=wrap;rounded=0;" parent="1" vertex="1">
                    <mxGeometry x="370" y="246.57" width="180" height="30" as="geometry"/>
                </mxCell>
                <mxCell id="57" value="" style="group" parent="1" vertex="1" connectable="0">
                    <mxGeometry x="-160" y="330" width="120" height="270" as="geometry"/>
                </mxCell>
                <mxCell id="8" value="" style="rounded=1;whiteSpace=wrap;html=1;strokeColor=#314354;fillColor=#647687;fontColor=#ffffff;" parent="57" vertex="1">
                    <mxGeometry y="30" width="120" height="240" as="geometry"/>
                </mxCell>
                <mxCell id="2" value="Soporte" style="aspect=fixed;html=1;points=[];align=center;image;fontSize=12;image=img/lib/azure2/identity/Users.svg;" parent="57" vertex="1">
                    <mxGeometry x="41.71000000000001" y="50" width="36.57" height="40" as="geometry"/>
                </mxCell>
                <mxCell id="9" value="Desarrolladores" style="aspect=fixed;html=1;points=[];align=center;image;fontSize=12;image=img/lib/azure2/identity/Users.svg;" parent="57" vertex="1">
                    <mxGeometry x="41.71000000000001" y="120" width="36.57" height="40" as="geometry"/>
                </mxCell>
                <mxCell id="10" value="Testing" style="aspect=fixed;html=1;points=[];align=center;image;fontSize=12;image=img/lib/azure2/identity/Users.svg;" parent="57" vertex="1">
                    <mxGeometry x="41.71000000000001" y="198.16999999999996" width="36.57" height="40" as="geometry"/>
                </mxCell>
                <mxCell id="11" value="TECSIDEL" style="text;html=1;strokeColor=none;fillColor=none;align=center;verticalAlign=middle;whiteSpace=wrap;rounded=0;" parent="57" vertex="1">
                    <mxGeometry x="30" width="60" height="30" as="geometry"/>
                </mxCell>
                <mxCell id="59" value="" style="group" parent="1" vertex="1" connectable="0">
                    <mxGeometry x="-160" y="610" width="120" height="150" as="geometry"/>
                </mxCell>
                <mxCell id="17" value="" style="rounded=1;whiteSpace=wrap;html=1;strokeColor=#314354;fillColor=#647687;fontColor=#ffffff;rotation=-90;" parent="59" vertex="1">
                    <mxGeometry y="30" width="120" height="120" as="geometry"/>
                </mxCell>
                <mxCell id="6" value="Servicios externos&lt;br&gt;(Desarrollo/Pruebas)" style="aspect=fixed;html=1;points=[];align=center;image;fontSize=12;image=img/lib/azure2/identity/Users.svg;" parent="59" vertex="1">
                    <mxGeometry x="40" y="60" width="36.57" height="40" as="geometry"/>
                </mxCell>
                <mxCell id="18" value="SERVICIOS EXTERNOS" style="text;html=1;strokeColor=none;fillColor=none;align=center;verticalAlign=middle;whiteSpace=wrap;rounded=0;" parent="59" vertex="1">
                    <mxGeometry x="30" width="60" height="30" as="geometry"/>
                </mxCell>
                <mxCell id="46" value="" style="sketch=0;html=1;dashed=0;whitespace=wrap;fillColor=#2875E2;strokeColor=#ffffff;points=[[0.005,0.63,0],[0.1,0.2,0],[0.9,0.2,0],[0.5,0,0],[0.995,0.63,0],[0.72,0.99,0],[0.5,1,0],[0.28,0.99,0]];verticalLabelPosition=bottom;align=center;verticalAlign=top;shape=mxgraph.kubernetes.icon;prIcon=pod" parent="1" vertex="1">
                    <mxGeometry x="390" y="494" width="30" height="28" as="geometry"/>
                </mxCell>
                <mxCell id="79" style="edgeStyle=none;html=1;" parent="1" source="76" target="50" edge="1">
                    <mxGeometry relative="1" as="geometry"/>
                </mxCell>
                <mxCell id="76" value="&lt;font color=&quot;#ffffff&quot;&gt;API Gateway&lt;/font&gt;" style="sketch=0;outlineConnect=0;fontColor=#232F3E;gradientColor=none;fillColor=#66B2FF;strokeColor=none;dashed=0;verticalLabelPosition=bottom;verticalAlign=top;align=center;html=1;fontSize=12;fontStyle=0;aspect=fixed;pointerEvents=1;shape=mxgraph.aws4.endpoint;" parent="1" vertex="1">
                    <mxGeometry x="267.28999999999996" y="487" width="48" height="48" as="geometry"/>
                </mxCell>
                <mxCell id="96" style="edgeStyle=none;html=1;" edge="1" parent="1" source="50" target="94">
                    <mxGeometry relative="1" as="geometry"/>
                </mxCell>
                <mxCell id="50" value="user-management-service" style="aspect=fixed;html=1;points=[];align=center;image;fontSize=12;image=img/lib/azure2/compute/Image_Definitions.svg;fillColor=#CCCCCC;" parent="1" vertex="1">
                    <mxGeometry x="525.28" y="521.54" width="49.43" height="47.93" as="geometry"/>
                </mxCell>
                <mxCell id="62" style="edgeStyle=none;html=1;" parent="1" source="56" target="50" edge="1">
                    <mxGeometry relative="1" as="geometry"/>
                </mxCell>
                <mxCell id="78" value="" style="sketch=0;aspect=fixed;html=1;points=[];align=center;image;fontSize=12;image=img/lib/mscae/Docker.svg;fillColor=#CCCCCC;movable=1;resizable=1;rotatable=1;deletable=1;editable=1;connectable=1;" parent="1" vertex="1">
                    <mxGeometry x="630" y="494" width="50" height="41" as="geometry"/>
                </mxCell>
                <mxCell id="3" value="db-service" style="aspect=fixed;html=1;points=[];align=center;image;fontSize=12;image=img/lib/azure2/databases/Azure_Database_PostgreSQL_Server_Group.svg;" parent="1" vertex="1">
                    <mxGeometry x="260" y="674" width="55.29" height="62.67" as="geometry"/>
                </mxCell>
                <mxCell id="93" style="edgeStyle=none;html=1;" parent="1" source="91" target="3" edge="1">
                    <mxGeometry relative="1" as="geometry"/>
                </mxCell>
                <mxCell id="91" value="Graphql" style="sketch=0;points=[[0,0,0],[0.25,0,0],[0.5,0,0],[0.75,0,0],[1,0,0],[0,1,0],[0.25,1,0],[0.5,1,0],[0.75,1,0],[1,1,0],[0,0.25,0],[0,0.5,0],[0,0.75,0],[1,0.25,0],[1,0.5,0],[1,0.75,0]];outlineConnect=0;fontColor=#FFFFFF;gradientColor=#66B2FF;gradientDirection=north;fillColor=#66B2FF;strokeColor=#ffffff;dashed=0;verticalLabelPosition=bottom;verticalAlign=top;align=center;html=1;fontSize=12;fontStyle=0;aspect=fixed;shape=mxgraph.aws4.resourceIcon;resIcon=mxgraph.aws4.iot_things_graph;" parent="1" vertex="1">
                    <mxGeometry x="268.64" y="569" width="38" height="38" as="geometry"/>
                </mxCell>
                <mxCell id="92" style="edgeStyle=none;html=1;" parent="1" source="56" target="91" edge="1">
                    <mxGeometry relative="1" as="geometry"/>
                </mxCell>
                <mxCell id="53" style="edgeStyle=none;html=1;" parent="1" source="50" target="3" edge="1">
                    <mxGeometry relative="1" as="geometry"/>
                </mxCell>
                <mxCell id="94" value="RabbitMQ / Redis" style="shape=cylinder3;whiteSpace=wrap;html=1;boundedLbl=1;backgroundOutline=1;size=15;rotation=-92;" vertex="1" parent="1">
                    <mxGeometry x="800" y="350" width="60" height="210" as="geometry"/>
                </mxCell>
                <mxCell id="95" style="edgeStyle=none;html=1;" edge="1" parent="1" source="56" target="94">
                    <mxGeometry relative="1" as="geometry"/>
                </mxCell>
            </root>
        </mxGraphModel>
    </diagram>
</mxfile>